<?xml version="1.0" standalone="no"?>
<!DOCTYPE svg PUBLIC "-//W3C//DTD SVG 20010904//EN"
 "http://www.w3.org/TR/2001/REC-SVG-20010904/DTD/svg10.dtd">
<svg version="1.0" xmlns="http://www.w3.org/2000/svg"
 width="1394.000000pt" height="425.000000pt" viewBox="0 0 1394.000000 425.000000"
 preserveAspectRatio="xMidYMid meet">

<g transform="translate(0.000000,425.000000) scale(0.100000,-0.100000)"
fill="#000000" stroke="none">
<path d="M10385 4069 c-41 -36 -49 -63 -66 -214 -6 -60 -16 -116 -22 -122 -5
-7 -20 -13 -33 -13 -37 0 -51 -35 -65 -159 l-13 -114 26 -22 c15 -13 32 -25
38 -27 8 -2 7 -42 -6 -149 -15 -124 -16 -151 -4 -178 16 -40 64 -77 111 -86
34 -6 36 -5 45 27 12 41 41 49 64 18 l17 -23 23 31 23 31 21 -42 c11 -23 35
-50 53 -60 42 -24 121 -25 160 -2 50 29 64 66 83 217 10 77 20 142 23 144 12
12 150 -16 171 -34 18 -17 82 -27 435 -71 376 -47 416 -50 431 -36 15 14 29
14 111 4 52 -6 97 -15 102 -18 4 -4 0 -58 -8 -121 -22 -168 -20 -202 12 -241
66 -77 196 -77 241 1 20 35 32 39 32 9 0 -12 17 -38 38 -59 66 -66 164 -63
224 8 25 30 30 51 54 264 6 56 8 58 40 64 18 3 38 12 45 20 14 17 42 219 35
250 -4 13 -20 31 -36 39 -35 18 -35 12 -14 178 18 147 14 168 -43 217 -63 56
-179 40 -222 -31 l-19 -31 -7 31 c-7 34 -63 88 -101 97 -48 12 -114 -2 -144
-31 -39 -38 -47 -61 -65 -210 -9 -71 -17 -130 -18 -131 -10 -8 -202 27 -216
40 -25 23 -833 123 -864 107 -16 -9 -41 -9 -96 -1 -41 6 -76 12 -78 14 -2 1 4
65 14 142 18 154 15 184 -26 224 -61 62 -161 62 -220 0 l-35 -37 -18 38 c-23
53 -69 79 -140 79 -50 0 -62 -4 -93 -31z"/>
<path d="M6360 3855 c-487 -24 -1024 -50 -1195 -58 -341 -15 -362 -20 -418
-86 -42 -51 -50 -91 -45 -237 4 -126 6 -136 34 -181 22 -37 42 -55 87 -77 l57
-29 358 17 c196 9 407 21 467 26 61 5 193 12 295 15 248 8 570 21 1075 46 378
18 424 22 463 40 53 26 97 79 111 134 12 49 5 241 -11 294 -13 43 -74 110
-115 128 -47 19 -168 16 -1163 -32z m1029 -54 c9 -6 10 -11 2 -15 -6 -4 -11
-11 -11 -17 0 -16 18 -10 40 13 l20 22 21 -21 21 -20 -51 -7 c-35 -5 -51 -11
-51 -21 0 -19 14 -19 30 0 9 11 16 12 31 2 26 -16 24 -27 -5 -27 -39 0 -54
-10 -49 -31 7 -24 21 -24 48 1 20 19 22 19 45 3 22 -16 22 -17 4 -24 -10 -4
-36 -8 -56 -8 -21 -1 -38 -5 -38 -11 0 -5 6 -10 13 -10 29 0 45 -33 38 -80
l-6 -45 -70 3 c-67 3 -69 3 -47 -13 24 -18 29 -41 10 -48 -8 -3 -6 -6 4 -6 10
-1 25 8 35 19 18 19 19 19 32 -11 19 -44 4 -53 -95 -58 -99 -4 -114 4 -114 61
0 38 1 39 32 36 26 -2 33 -7 33 -25 0 -13 3 -23 8 -23 38 -1 38 0 26 22 -25
46 -35 50 -104 43 -45 -5 -65 -4 -65 4 0 7 41 11 130 11 120 0 130 1 130 19 0
16 -6 18 -42 15 -122 -10 -209 -11 -214 -3 -3 5 31 9 79 9 104 0 177 9 177 23
0 6 -47 8 -135 4 -79 -3 -135 -2 -135 4 0 5 13 9 30 9 21 0 28 4 24 14 -4 11
-12 13 -31 5 -18 -6 -30 -6 -39 2 -25 21 -16 38 23 41 27 2 39 8 41 21 3 16
-1 17 -32 11 -24 -4 -36 -2 -36 5 0 6 16 11 35 11 24 0 35 5 35 15 0 11 -12
16 -42 17 l-43 1 43 4 c37 4 42 7 42 29 0 20 5 24 31 24 26 0 29 -3 24 -20 -8
-24 10 -27 19 -4 6 15 8 15 31 0 38 -25 65 -21 65 9 0 19 5 25 23 25 12 0 28
-4 36 -9z m-672 -32 c26 -10 27 -12 11 -23 -26 -19 -22 -26 16 -26 23 0 38 7
47 20 13 19 16 20 37 5 29 -21 28 -35 -2 -35 -40 0 -56 -11 -56 -38 l0 -25 25
23 c24 23 25 23 45 5 20 -18 20 -18 20 29 l0 47 45 -7 c35 -5 50 -3 63 9 16
14 19 14 38 -1 20 -16 21 -24 15 -92 -5 -68 -8 -75 -28 -78 -13 -2 -23 1 -23
7 0 18 -39 12 -61 -10 -29 -29 -43 -19 -47 30 -3 42 -4 43 -34 37 -17 -3 -40
-6 -52 -7 -13 0 -6 -5 18 -12 43 -13 63 -36 53 -61 -12 -30 -46 -19 -62 21
l-16 37 -20 -33 c-15 -25 -17 -37 -9 -45 16 -16 142 -14 173 3 23 12 29 12 52
-3 25 -16 34 -36 16 -36 -5 0 -8 -30 -8 -67 2 -67 2 -68 -25 -71 -16 -2 -28 1
-28 7 0 7 -27 11 -69 11 -53 0 -70 -4 -75 -16 -3 -9 -15 -14 -28 -12 -22 3
-23 8 -26 91 -1 48 -5 87 -7 87 -3 0 -19 -9 -37 -20 -48 -29 -56 -24 -21 13
35 36 53 68 53 92 0 13 -8 16 -42 13 -25 -2 -42 1 -41 7 1 6 10 33 19 60 10
28 19 56 20 63 4 15 14 15 51 1z m-142 -19 c22 -24 13 -28 -70 -32 l-60 -3 -3
-37 c-3 -35 -1 -38 24 -38 15 0 35 7 45 16 16 14 20 14 39 1 20 -14 22 -26 25
-153 4 -143 2 -154 -37 -154 -12 0 -18 8 -18 21 0 22 -2 22 -122 16 -76 -3
-124 -10 -126 -16 -6 -19 -34 -42 -46 -38 -15 5 -24 64 -28 200 -3 114 -2 118
17 112 11 -3 35 -8 53 -12 l32 -6 0 43 0 43 -65 -5 c-36 -3 -65 -2 -65 2 0 4
75 10 167 14 149 7 169 10 181 27 17 24 34 24 57 -1z m-623 -62 l-4 -48 34 0
c18 0 46 7 63 16 22 11 34 12 50 4 18 -9 20 -20 20 -93 0 -82 0 -82 -28 -85
-18 -2 -29 2 -33 12 -4 11 -19 16 -51 16 l-44 0 3 -92 3 -93 -30 0 -30 0 -3
93 c-3 99 -2 97 -60 86 -18 -4 -32 -14 -35 -25 -3 -13 -14 -19 -31 -19 -25 0
-26 2 -26 64 0 35 -3 77 -6 94 l-6 31 77 -6 77 -6 -3 52 -4 52 35 -3 35 -3 -3
-47z m-284 30 c20 -20 14 -27 -30 -30 -39 -3 -43 -6 -46 -33 -4 -29 -3 -29 16
-11 18 16 23 16 41 4 26 -18 17 -28 -26 -28 -30 0 -33 -3 -33 -30 0 -33 14
-39 28 -14 8 14 12 14 30 3 31 -20 27 -29 -12 -29 -41 0 -46 -6 -39 -43 6 -31
19 -34 44 -11 14 13 21 13 37 3 17 -11 19 -20 15 -68 -6 -74 -19 -106 -49
-120 -22 -10 -29 -7 -64 28 -22 21 -40 47 -40 58 0 10 -5 24 -12 31 -9 9 -9
12 2 12 22 0 50 -31 50 -57 0 -18 5 -23 24 -23 28 0 36 16 36 71 l0 39 -63 0
c-56 0 -65 -3 -74 -22 -7 -17 -5 -26 9 -40 25 -25 24 -68 -2 -68 -15 0 -20 7
-20 29 0 35 -9 61 -20 61 -5 0 -4 -15 1 -32 12 -45 12 -54 -8 -73 -16 -16 -18
-16 -34 4 -9 11 -24 21 -33 21 -9 0 -16 5 -16 10 0 23 -19 8 -22 -17 -2 -20
-9 -29 -25 -31 -22 -3 -23 -1 -23 74 l0 77 -22 -19 c-21 -19 -21 -19 -13 1 25
64 35 101 41 150 l7 55 -32 0 c-17 0 -31 5 -31 10 0 6 24 10 53 10 41 0 58 5
72 20 15 16 21 18 33 7 11 -9 16 -9 19 -1 3 8 30 10 86 7 68 -5 85 -3 96 11
16 19 33 20 49 4z m-457 -27 c19 -16 22 -22 12 -32 -7 -7 -13 -29 -13 -48 -1
-25 -10 -47 -30 -71 -30 -35 -38 -60 -20 -60 6 0 13 7 16 15 8 20 27 19 48 -4
16 -17 15 -19 -25 -24 -22 -3 -42 -7 -44 -9 -3 -2 -1 -17 4 -34 l8 -29 14 23
c17 27 31 28 52 4 22 -24 13 -32 -36 -32 l-40 0 5 -44 c6 -47 -4 -66 -33 -66
-21 0 -29 20 -29 71 0 41 -8 46 -57 33 -19 -5 -23 -13 -23 -45 0 -30 -5 -42
-25 -55 -24 -16 -26 -15 -54 15 l-29 31 29 0 c27 0 29 3 29 36 l0 35 -42 -3
c-39 -3 -43 -5 -51 -38 -4 -20 -19 -49 -33 -65 -17 -21 -23 -24 -18 -10 5 11
10 76 12 144 4 119 3 124 -14 110 -16 -13 -17 -12 -9 6 22 53 44 122 45 138 0
20 8 21 47 6 21 -8 24 -12 13 -19 -8 -5 -12 -12 -8 -15 3 -4 15 -1 27 7 18 11
23 10 38 -4 16 -17 16 -19 -4 -40 -31 -35 -40 -56 -15 -34 21 18 23 19 42 1
13 -12 18 -25 14 -38 -4 -14 -3 -17 6 -12 17 11 40 69 40 103 0 26 -3 29 -25
24 -15 -2 -25 0 -25 7 0 7 25 11 69 11 49 0 72 4 81 15 16 19 23 19 51 -4z
m2274 -231 c15 -16 17 -24 9 -38 -18 -28 -43 -26 -55 5 -6 15 -18 37 -27 47
-16 18 -16 19 18 12 19 -3 44 -15 55 -26z m-315 -14 c0 -40 -24 -68 -54 -64
-32 5 -33 42 -1 56 14 7 28 19 31 27 11 27 24 16 24 -19z m-1577 3 c27 -14 37
-28 37 -51 0 -32 -27 -19 -48 22 -21 44 -21 45 11 29z"/>
<path d="M7217 3743 c-4 -3 -7 -13 -7 -22 0 -12 3 -11 13 3 11 16 17 17 36 7
28 -15 18 -31 -20 -31 -20 0 -29 -4 -27 -12 3 -8 20 -12 44 -11 l39 2 -35 -15
c-19 -8 -40 -26 -47 -39 l-11 -25 76 0 c43 0 84 5 92 11 12 8 10 9 -8 4 -18
-5 -25 -2 -29 15 -5 17 -11 20 -34 15 -18 -4 -29 -2 -29 4 0 6 14 11 30 11 23
0 30 5 30 19 0 12 -8 21 -22 24 l-23 4 23 2 c15 1 22 7 22 21 0 18 -7 20 -53
20 -30 0 -57 -3 -60 -7z"/>
<path d="M6914 3716 c-3 -7 -4 -33 -2 -57 3 -41 5 -44 28 -41 14 2 26 5 27 6
1 1 0 26 -4 54 -5 42 -9 52 -25 52 -10 0 -21 -6 -24 -14z"/>
<path d="M6672 3679 l-34 -30 39 3 c27 2 39 8 41 22 7 33 -12 35 -46 5z"/>
<path d="M6780 3495 c0 -24 2 -25 63 -25 71 0 77 3 70 31 -5 16 -14 19 -69 19
-62 0 -64 -1 -64 -25z"/>
<path d="M6780 3430 l0 -31 68 3 c65 3 67 4 70 31 l3 27 -70 0 -71 0 0 -30z"/>
<path d="M6350 3675 c0 -28 4 -35 20 -35 20 0 26 22 14 54 -12 30 -34 18 -34
-19z"/>
<path d="M6367 3623 c-3 -5 -10 -34 -17 -66 -9 -47 -20 -66 -52 -98 -22 -21
-38 -44 -36 -50 4 -13 238 -13 251 0 4 4 4 21 1 38 -6 29 -9 31 -31 22 -67
-25 -93 -1 -93 86 0 57 -11 88 -23 68z"/>
<path d="M6440 3613 c0 -35 13 -93 20 -93 4 0 13 12 20 28 l14 27 7 -35 c5
-29 7 -24 8 28 l1 62 -35 0 c-27 0 -35 -4 -35 -17z"/>
<path d="M6257 3613 c-2 -5 -1 -44 2 -88 l7 -80 17 39 c9 21 17 60 17 87 0 42
-3 49 -19 49 -11 0 -22 -3 -24 -7z"/>
<path d="M5826 3623 c-27 -4 -28 -7 -22 -41 3 -20 6 -43 6 -49 0 -9 16 -13 45
-13 l45 0 0 39 c0 22 -3 46 -6 55 -6 16 -13 17 -68 9z"/>
<path d="M5954 3593 c3 -21 6 -46 6 -55 0 -19 25 -23 68 -12 19 6 22 13 22 55
l0 49 -51 0 -52 0 7 -37z"/>
<path d="M5500 3655 c0 -16 6 -25 15 -25 9 0 15 9 15 25 0 16 -6 25 -15 25 -9
0 -15 -9 -15 -25z"/>
<path d="M5385 3650 c-11 -18 -33 -99 -28 -104 3 -3 13 0 22 6 12 7 23 8 36 1
15 -9 18 -23 16 -98 -2 -59 1 -85 8 -80 12 7 15 223 5 263 -7 23 -47 32 -59
12z"/>
<path d="M5507 3614 c-4 -4 -7 -20 -7 -36 0 -23 4 -29 18 -26 11 2 17 13 17
32 0 29 -14 43 -28 30z"/>
<path d="M5500 3510 c0 -23 4 -30 20 -30 16 0 20 7 20 30 0 23 -4 30 -20 30
-16 0 -20 -7 -20 -30z"/>
<path d="M5350 3493 c0 -57 11 -113 21 -107 5 3 9 36 9 75 0 55 -3 69 -15 69
-11 0 -15 -11 -15 -37z"/>
<path d="M5121 3648 c-26 -71 -23 -81 20 -58 24 13 28 80 4 80 -9 0 -19 -10
-24 -22z"/>
<path d="M4886 3615 c-18 -27 -14 -45 9 -45 14 0 25 21 25 51 0 26 -15 24 -34
-6z"/>
<path d="M5071 3556 l-23 -24 23 -7 c14 -5 25 -3 27 4 2 6 10 11 18 11 20 0
17 18 -5 29 -14 8 -23 5 -40 -13z"/>
<path d="M4880 3530 c0 -16 5 -30 10 -30 6 0 10 14 10 30 0 17 -4 30 -10 30
-5 0 -10 -13 -10 -30z"/>
<path d="M4940 3530 c0 -16 5 -30 10 -30 6 0 10 14 10 30 0 17 -4 30 -10 30
-5 0 -10 -13 -10 -30z"/>
<path d="M5023 3523 c-8 -3 -13 -25 -13 -59 0 -65 16 -64 25 1 8 50 5 64 -12
58z"/>
<path d="M5086 3491 c-4 -7 -5 -15 -2 -18 9 -9 19 4 14 18 -4 11 -6 11 -12 0z"/>
<path d="M4890 3452 c0 -26 4 -41 10 -37 13 8 13 45 0 65 -7 11 -10 3 -10 -28z"/>
<path d="M4947 3483 c-8 -14 5 -73 14 -67 12 7 12 61 0 69 -5 3 -12 2 -14 -2z"/>
<path d="M5050 3430 l-21 -30 35 0 c33 0 36 2 36 30 0 19 -5 30 -14 30 -8 0
-24 -13 -36 -30z"/>
<path d="M1510 3424 c-14 -2 -56 -9 -95 -15 -162 -26 -345 -105 -485 -210
-343 -256 -519 -679 -456 -1099 71 -468 400 -833 863 -957 89 -24 114 -27 283
-27 168 0 194 3 281 26 308 83 548 260 710 522 206 335 225 765 48 1118 -76
154 -202 306 -340 413 -117 90 -294 171 -448 206 -82 18 -307 33 -361 23z
m-11 -200 c7 -41 10 -78 8 -81 -12 -11 -27 10 -27 38 0 20 -5 29 -16 29 -13 0
-15 -7 -9 -41 6 -33 4 -40 -6 -37 -15 5 -43 134 -34 157 7 19 22 3 27 -28 1
-14 9 -26 17 -29 11 -4 12 3 7 30 -6 34 0 52 14 43 4 -2 13 -39 19 -81z m101
77 c0 -5 -10 -11 -22 -13 -30 -4 -37 -38 -9 -45 24 -6 28 -23 6 -23 -9 0 -15
-9 -15 -25 0 -18 5 -25 20 -25 31 0 23 -17 -10 -22 -17 -3 -32 -2 -35 0 -3 3
-5 41 -5 84 l0 78 35 0 c19 0 35 -4 35 -9z m83 2 c3 -5 8 -43 12 -85 5 -57 4
-78 -5 -78 -7 0 -14 9 -17 20 -6 24 -21 26 -29 5 -4 -8 -12 -15 -19 -15 -10 0
-8 19 7 80 13 49 26 80 34 80 7 0 15 -3 17 -7z m84 -25 c-3 -13 -9 -45 -13
-71 -6 -44 -4 -49 15 -54 26 -7 18 -23 -12 -24 -12 0 13 -9 55 -19 149 -37
279 -110 396 -223 339 -329 352 -862 29 -1213 -97 -105 -280 -219 -386 -240
-30 -6 -31 -8 -24 -46 5 -38 -4 -57 -29 -58 -5 0 -28 87 -28 109 0 4 24 13 53
20 128 33 272 118 375 223 105 107 164 207 209 355 23 77 26 105 26 228 0 123
-3 151 -26 228 -85 279 -272 474 -547 569 -93 32 -99 33 -263 33 -121 0 -167
3 -167 12 0 18 54 26 182 26 64 0 115 4 112 9 -3 4 0 42 7 83 8 54 16 75 26
75 11 0 14 -7 10 -22z m111 -4 c25 -7 30 -24 7 -24 -13 0 -20 -17 -41 -102 -3
-16 -13 -28 -21 -28 -9 0 -12 6 -9 18 23 76 29 116 18 120 -7 2 -12 8 -12 13
0 10 25 12 58 3z m65 -20 c3 -3 1 -18 -4 -32 -6 -17 -6 -29 0 -35 7 -7 14 -1
22 21 6 18 18 32 26 32 10 0 13 -6 8 -17 -3 -10 -16 -46 -28 -81 -12 -34 -26
-60 -32 -58 -11 4 -11 5 0 49 10 38 -13 36 -26 -3 -6 -16 -18 -30 -26 -30 -10
0 -13 6 -8 18 3 9 16 45 28 80 21 60 27 69 40 56z m181 -80 c18 -18 18 -17 10
-38 -10 -25 -37 -20 -29 5 12 37 -18 17 -43 -29 -24 -43 -21 -81 4 -48 17 24
38 11 24 -15 -13 -24 -56 -25 -69 -1 -10 19 5 65 39 113 24 33 41 36 64 13z
m99 -66 c9 -13 3 -28 -26 -72 -37 -56 -61 -68 -85 -44 -19 19 -14 40 24 91 37
51 66 59 87 25z m97 -88 c0 -4 -19 -29 -43 -56 -37 -41 -47 -46 -70 -40 -46
11 -42 31 15 96 l53 61 23 -26 c12 -14 22 -30 22 -35z m77 -76 c-3 -4 -13 -1
-22 6 -20 17 -45 -3 -38 -30 6 -22 -7 -26 -23 -10 -18 18 -41 -17 -26 -40 18
-29 -2 -33 -28 -5 l-22 24 58 55 59 55 24 -24 c14 -14 22 -27 18 -31z m-1474
35 c36 -8 57 -17 57 -25 0 -21 67 -18 79 3 10 19 29 13 81 -27 21 -16 22 -20
10 -35 -16 -19 -72 -187 -64 -194 2 -3 10 1 16 7 9 9 20 5 45 -20 30 -29 33
-30 33 -11 0 17 7 22 33 25 24 2 33 8 35 26 3 20 0 22 -47 22 -50 0 -51 1 -51
30 0 29 1 30 50 30 43 0 50 3 50 20 0 16 -7 20 -35 20 -32 0 -35 2 -35 30 0
28 3 30 35 30 34 0 35 1 35 40 0 44 3 45 73 34 34 -6 37 -9 37 -40 0 -38 21
-45 51 -18 17 15 21 14 59 -16 38 -30 40 -34 25 -49 -19 -22 -20 -52 -1 -45
15 6 36 -23 36 -50 0 -10 -9 -16 -25 -16 -24 0 -25 -3 -25 -60 0 -50 -3 -60
-17 -60 -14 -1 -12 -5 10 -23 15 -13 27 -33 27 -45 0 -21 -4 -22 -70 -22 -63
0 -70 -2 -70 -20 0 -16 7 -20 32 -20 17 0 39 7 48 15 14 13 20 12 53 -12 20
-14 37 -34 37 -45 0 -16 -9 -18 -85 -18 l-85 0 0 -29 c0 -33 -14 -41 -71 -41
-38 0 -39 1 -39 35 l0 35 -55 0 c-45 0 -55 3 -56 18 -1 9 -6 2 -12 -16 -9 -28
-7 -35 9 -47 41 -30 128 -45 262 -45 73 0 132 -3 132 -7 0 -5 -6 -28 -14 -53
l-13 -45 -139 1 c-151 2 -200 13 -261 60 -19 14 -35 24 -37 23 -28 -40 -81
-99 -89 -99 -5 0 -16 8 -23 18 -13 16 -13 16 -14 0 0 -15 -9 -18 -50 -18 -27
0 -52 0 -55 0 -3 0 -6 79 -7 175 -1 96 -4 175 -7 175 -2 0 -9 -7 -16 -16 -10
-14 -13 -13 -25 15 -11 28 -10 40 13 109 27 82 57 225 57 273 0 33 -2 33 73
18z m1057 -196 c3 -3 -1 -8 -7 -10 -36 -13 -4 -23 71 -23 62 0 87 4 96 15 7 8
17 15 22 15 21 0 68 -42 68 -61 0 -17 -8 -19 -62 -20 l-63 0 43 -22 c41 -20
53 -39 32 -52 -5 -3 -10 -15 -10 -26 0 -11 4 -18 10 -14 14 9 50 -18 50 -37 0
-13 -8 -18 -30 -18 -30 0 -30 -1 -30 -54 0 -50 -2 -54 -27 -61 l-28 -7 40 -20
39 -21 -37 -21 c-20 -11 -37 -24 -37 -28 0 -4 27 -13 60 -20 33 -6 60 -15 60
-20 0 -17 -45 -98 -54 -98 -29 1 -106 46 -148 88 l-48 46 0 -61 c0 -53 -3 -64
-22 -77 -36 -26 -82 -20 -118 14 -36 34 -34 60 5 60 18 0 25 5 25 20 0 11 -2
20 -5 20 -3 0 -29 -17 -58 -39 -29 -21 -62 -44 -75 -50 -22 -11 -24 -10 -39
28 -9 23 -19 41 -22 41 -3 0 -14 -20 -24 -44 -23 -56 -38 -70 -60 -53 -14 11
-14 20 -2 87 9 48 14 154 14 298 1 251 -6 234 85 207 56 -17 166 -20 166 -5 0
6 -7 13 -15 16 -21 9 -19 19 8 31 16 7 36 6 72 -4 28 -8 52 -17 55 -20z m-470
-658 c61 -22 227 -21 251 1 17 16 21 15 53 -10 50 -38 39 -56 -35 -56 -56 0
-59 -1 -59 -25 0 -26 18 -33 37 -14 15 15 63 -17 63 -42 0 -16 -8 -19 -50 -19
-49 0 -50 -1 -50 -30 0 -34 6 -37 30 -15 15 14 20 13 43 -6 15 -11 27 -29 27
-40 0 -16 -7 -19 -50 -19 -47 0 -50 -2 -50 -25 0 -29 7 -31 31 -9 17 15 21 14
64 -10 45 -27 54 -39 35 -51 -5 -3 -10 -39 -10 -78 -1 -133 -24 -182 -92 -193
-30 -5 -36 -3 -41 15 -3 11 -17 25 -31 31 -14 5 -26 17 -26 26 0 13 -3 14 -15
4 -17 -14 -17 -14 -33 65 -6 28 -13 57 -17 66 -4 11 0 19 12 23 23 9 47 -20
70 -85 14 -39 22 -49 38 -47 11 2 21 12 24 23 3 17 1 17 -12 6 -14 -11 -20 -5
-45 48 -26 55 -28 63 -13 71 12 6 24 1 49 -23 l32 -31 0 37 0 37 -95 0 c-57 0
-95 -4 -95 -10 0 -5 -22 -10 -50 -10 l-50 0 0 146 c0 112 -3 145 -12 142 -10
-4 -14 -55 -16 -201 -2 -196 -3 -197 -25 -197 -12 0 -32 -3 -43 -6 -16 -4 -23
0 -27 16 -7 25 -27 18 -27 -10 0 -21 -19 -30 -61 -30 l-29 0 0 261 c0 245 1
261 18 254 87 -38 100 -40 121 -21 19 17 21 17 54 -8 19 -14 37 -26 40 -26 4
0 7 20 7 45 0 25 4 45 9 45 5 0 28 -7 51 -15z m-2 -420 c4 -3 -19 -188 -25
-198 -2 -4 -24 7 -47 24 l-44 31 23 41 c13 23 28 59 35 80 10 32 15 37 33 31
12 -4 23 -8 25 -9z m77 -76 c21 -92 21 -95 -25 -107 l-40 -10 0 98 c0 86 2 99
18 102 22 5 29 -6 47 -83z m273 -321 c18 -18 15 -43 -8 -63 -18 -17 -21 -17
-45 -1 -28 18 -30 28 -15 57 12 21 50 25 68 7z"/>
<path d="M1657 3230 c-3 -11 -1 -23 4 -26 5 -3 9 6 9 20 0 31 -6 34 -13 6z"/>
<path d="M2169 3087 c-41 -57 -50 -75 -40 -81 11 -7 71 69 71 91 0 19 -13 15
-31 -10z"/>
<path d="M2236 2995 c-44 -54 -26 -62 24 -10 24 24 31 38 24 45 -8 8 -22 -3
-48 -35z"/>
<path d="M951 2849 c-16 -46 -15 -152 2 -147 13 5 66 131 67 161 0 12 -8 17
-29 17 -24 0 -31 -6 -40 -31z"/>
<path d="M1360 2830 c0 -11 7 -20 15 -20 8 0 15 9 15 20 0 11 -7 20 -15 20 -8
0 -15 -9 -15 -20z"/>
<path d="M1362 2728 c5 -32 28 -35 28 -4 0 17 -5 26 -16 26 -10 0 -14 -7 -12
-22z"/>
<path d="M940 2473 c0 -210 0 -209 46 -120 l25 48 -26 64 c-29 74 -31 91 -9
99 26 10 31 7 45 -26 l14 -33 7 40 c4 22 7 53 7 69 1 29 1 29 -20 10 -21 -19
-21 -18 -50 14 -16 17 -31 32 -34 32 -3 0 -5 -89 -5 -197z"/>
<path d="M1167 2628 c-8 -13 -17 -47 -19 -75 l-5 -53 53 0 c47 0 54 3 54 19 0
16 -8 20 -37 23 -33 3 -38 7 -41 31 -3 26 -1 27 38 27 37 0 41 2 38 23 -5 33
-61 37 -81 5z"/>
<path d="M1367 2643 c-4 -3 -7 -15 -7 -25 0 -15 6 -19 27 -16 28 3 45 28 19
28 -9 0 -16 5 -16 10 0 11 -13 13 -23 3z"/>
<path d="M1720 2635 l0 -65 80 0 c79 0 80 0 80 25 0 24 -2 25 -71 25 -67 0
-70 1 -67 23 3 20 9 22 71 25 51 2 67 6 67 17 0 12 -17 15 -80 15 l-80 0 0
-65z"/>
<path d="M1990 2685 c0 -11 11 -15 39 -15 22 0 44 6 51 15 11 13 6 15 -39 15
-39 0 -51 -4 -51 -15z"/>
<path d="M1992 2598 c2 -18 11 -24 36 -26 29 -3 32 -1 32 22 0 23 -4 26 -36
26 -31 0 -35 -3 -32 -22z"/>
<path d="M1720 2493 c-1 -16 -7 -64 -15 -108 -8 -43 -12 -81 -11 -83 8 -8 76
11 76 21 0 6 -12 24 -27 39 -23 25 -25 30 -13 42 13 12 24 11 78 -6 63 -19 64
-19 45 -40 -18 -20 -18 -20 2 -17 16 3 21 13 23 47 l3 42 -70 0 c-69 0 -71 1
-71 25 0 24 2 25 70 25 63 0 70 2 70 20 0 18 -7 20 -80 20 l-80 0 0 -27z"/>
<path d="M1990 2500 c0 -16 7 -20 35 -20 28 0 35 4 35 20 0 16 -7 20 -35 20
-28 0 -35 -4 -35 -20z"/>
<path d="M2000 2421 c0 -12 40 -61 50 -61 5 0 14 9 20 20 8 16 8 24 -4 35 -16
16 -66 21 -66 6z"/>
<path d="M1550 2035 c0 -22 4 -25 35 -25 31 0 35 3 35 25 0 22 -4 25 -35 25
-31 0 -35 -3 -35 -25z"/>
<path d="M1306 2013 c-3 -3 -6 -75 -6 -160 0 -129 2 -153 15 -153 13 0 15 24
15 154 0 141 -5 177 -24 159z"/>
<path d="M1550 1930 c0 -29 2 -31 33 -28 27 2 32 7 32 28 0 21 -5 26 -32 28
-31 3 -33 1 -33 -28z"/>
<path d="M1550 1825 c0 -22 4 -25 35 -25 31 0 35 3 35 25 0 22 -4 25 -35 25
-31 0 -35 -3 -35 -25z"/>
<path d="M5943 3161 c-121 -22 -133 -34 -133 -121 0 -80 18 -109 82 -135 45
-18 91 -14 140 11 48 25 135 37 173 24 41 -14 48 -30 39 -99 l-7 -56 34 26
c89 68 120 169 79 253 -26 55 -36 61 -152 92 -103 28 -130 28 -255 5z"/>
<path d="M11310 3119 c-19 -11 -44 -32 -54 -47 -25 -33 -32 -118 -15 -168 l13
-39 8 40 c16 73 82 118 194 130 56 7 63 5 83 -16 16 -17 21 -35 21 -76 0 -36
4 -52 11 -48 6 4 10 37 9 78 -1 40 0 79 1 87 4 28 -1 50 -12 50 -6 0 -17 7
-25 15 -25 25 -189 20 -234 -6z"/>
<path d="M4659 3103 c-60 -31 -109 -93 -131 -166 -13 -42 -18 -330 -6 -342 3
-3 25 3 50 14 24 10 69 24 99 31 l54 12 -3 54 c-5 71 24 132 109 232 75 88 80
119 31 164 -45 39 -125 40 -203 1z"/>
<path d="M9863 3106 c-18 -15 -35 -35 -38 -45 -3 -10 -16 -23 -30 -29 -13 -6
-38 -30 -55 -53 -28 -39 -30 -48 -28 -115 2 -63 -1 -76 -19 -96 -32 -34 -44
-72 -30 -93 10 -12 25 -15 62 -13 l50 3 -2 40 c-1 22 -3 66 -5 97 -3 53 -1 59
31 92 48 49 63 52 122 19 67 -36 83 -61 75 -114 -5 -32 -2 -46 14 -66 11 -14
20 -38 20 -53 0 -28 1 -28 76 -35 60 -6 78 -5 85 6 15 24 10 93 -8 119 -13 18
-19 52 -23 114 l-5 90 -51 30 c-27 17 -68 50 -90 74 -52 58 -105 67 -151 28z"/>
<path d="M7942 3074 c-18 -9 -37 -25 -43 -36 -9 -17 -12 -17 -25 -3 -21 21
-53 19 -92 -5 -69 -42 -93 -165 -49 -250 21 -41 50 -70 61 -60 2 3 9 40 15 83
9 61 18 89 45 128 l33 50 12 -29 c7 -16 41 -57 77 -92 35 -36 64 -71 64 -78 0
-8 -14 -34 -30 -59 -17 -25 -29 -47 -27 -50 3 -2 24 16 49 40 l44 44 34 -24
c36 -24 137 -59 147 -50 3 3 0 21 -5 39 -6 18 -18 73 -27 122 -18 96 -40 149
-77 182 -60 55 -151 76 -206 48z"/>
<path d="M7203 2968 c-6 -7 -16 -107 -23 -222 l-13 -210 26 -20 c14 -12 89
-61 166 -111 l142 -90 -7 -40 c-3 -22 -8 -43 -11 -47 -2 -5 -175 -8 -384 -8
-320 0 -385 -2 -417 -15 -47 -20 -78 -50 -105 -100 -20 -36 -22 -56 -22 -180
0 -149 7 -177 59 -233 50 -56 53 -57 441 -62 l360 -5 5 -35 c5 -32 10 -37 55
-52 48 -16 487 -68 571 -68 49 0 54 8 54 91 0 46 4 63 21 80 19 19 22 19 38 5
23 -21 27 -20 35 7 6 22 7 22 31 -7 43 -54 38 -99 -14 -111 -36 -8 -32 -25 5
-25 37 0 74 42 74 85 l0 35 534 0 533 0 52 54 51 55 0 68 c0 37 7 118 15 178
8 61 15 113 15 117 0 14 -64 79 -94 96 -28 15 -91 18 -629 22 l-597 5 -49 114
c-55 127 -86 165 -170 210 l-57 30 -11 -29 c-8 -22 -18 -30 -36 -30 -29 0 -57
29 -57 59 0 21 -3 22 -57 16 -82 -8 -373 18 -383 35 -10 16 -28 133 -36 232
-9 120 -8 118 -58 118 -24 0 -48 -6 -53 -12z m-294 -844 c10 -3 11 -7 1 -19
-18 -22 -3 -35 42 -35 29 0 49 7 65 22 22 21 23 21 43 3 11 -10 20 -22 20 -27
0 -4 -91 -7 -202 -6 -112 1 -164 4 -115 5 l87 4 0 33 c0 35 4 37 59 20z m591
-35 c0 -4 -6 -7 -12 -6 -7 0 -24 -1 -38 -2 l-25 -2 28 -15 c34 -19 34 -24 -3
-49 -16 -11 -30 -23 -30 -27 0 -12 38 -9 60 4 17 11 23 9 42 -10 26 -25 20
-34 -35 -52 -26 -8 -37 -17 -33 -26 3 -8 1 -14 -3 -14 -13 0 -71 -81 -66 -91
3 -4 36 -12 75 -19 l69 -12 -21 -28 c-18 -24 -26 -28 -52 -23 -17 3 -52 17
-77 30 -46 24 -47 24 -80 7 -36 -18 -124 -44 -149 -43 -8 0 6 8 32 18 58 23
118 60 118 72 0 6 -6 22 -14 37 -27 54 -28 78 -1 34 33 -53 53 -52 82 7 30 58
40 68 55 53 17 -17 23 -15 36 13 l12 25 -140 0 -140 0 0 -25 c0 -21 5 -25 33
-26 30 0 31 -1 8 -10 -16 -6 -28 -6 -36 1 -9 8 -15 8 -20 0 -9 -15 -45 -12
-51 5 -7 18 52 90 61 75 3 -6 15 -10 26 -10 16 0 19 4 14 23 -4 12 -15 34 -26
50 l-20 27 26 0 c33 0 166 27 214 44 32 11 38 10 59 -8 12 -10 22 -23 22 -27z
m209 26 c3 -3 0 -10 -7 -14 -8 -4 -14 -14 -16 -22 -1 -8 -7 -23 -13 -34 -11
-19 -19 -315 -9 -315 2 0 14 16 26 35 19 30 20 40 11 67 -15 42 -13 58 3 29
15 -28 23 -19 26 29 3 50 1 57 -11 38 -10 -18 -49 -26 -49 -10 0 17 48 154 57
163 6 6 15 3 26 -9 16 -17 16 -21 -3 -60 -23 -47 -26 -67 -8 -56 6 4 28 8 47
8 l36 1 0 83 c0 82 0 82 26 82 30 0 41 -8 31 -24 -4 -6 -8 -41 -9 -78 -1 -53
2 -68 13 -68 10 0 14 15 14 59 0 68 17 92 43 63 10 -11 14 -27 10 -42 -5 -24
-5 -24 9 -6 15 19 16 19 27 -2 6 -12 8 -23 4 -23 -4 -1 -15 -2 -23 -3 -22 -2
-32 -67 -13 -88 15 -17 14 -18 -16 -18 -29 0 -31 2 -21 20 6 11 7 20 3 20 -4
0 -18 3 -29 6 -20 5 -22 2 -22 -45 0 -48 2 -51 26 -51 13 0 31 8 37 17 12 17
14 17 35 -2 l22 -20 -58 -5 c-52 -4 -59 -8 -62 -27 -3 -17 -10 -23 -28 -23
-19 0 -23 5 -21 23 2 18 -4 23 -29 25 -22 2 -33 -2 -38 -14 -12 -32 54 -54
166 -54 l77 0 -23 -25 c-19 -21 -32 -25 -77 -25 -60 1 -120 19 -150 46 -18 16
-20 16 -39 -8 -23 -29 -73 -53 -95 -44 -13 5 -14 21 -9 106 7 98 2 114 -23 89
-7 -7 -1 14 12 47 13 32 29 86 36 120 l12 62 30 -9 c16 -5 32 -11 36 -14z
m567 -2 c-3 -8 -6 -21 -6 -29 0 -8 -10 -14 -22 -15 -19 0 -17 -3 10 -13 18 -6
30 -15 26 -19 -4 -4 -9 -35 -10 -68 -3 -60 -3 -60 24 -57 25 3 27 6 27 55 0
65 13 81 46 55 20 -17 21 -22 10 -36 -9 -11 -10 -16 -2 -16 6 0 14 7 17 15 5
11 11 12 25 4 28 -15 23 -29 -11 -29 -28 0 -30 -2 -30 -38 0 -27 6 -41 20 -50
26 -16 19 -28 -20 -35 -41 -9 -38 -23 8 -38 53 -17 53 -17 26 -44 -19 -19 -29
-23 -42 -16 -28 15 -69 64 -86 101 l-15 35 1 -67 c1 -41 -4 -73 -12 -83 -16
-19 -60 -20 -60 0 0 7 -8 19 -17 24 -16 9 -15 10 5 11 21 0 41 24 29 36 -2 3
-26 -9 -53 -26 l-48 -30 -12 22 c-16 30 -12 34 37 42 35 6 39 9 27 19 -8 7
-20 24 -26 40 -11 27 -11 27 16 21 41 -10 44 -14 38 -45 -4 -22 -2 -27 9 -22
10 3 15 19 15 44 l0 39 -47 2 -48 2 49 3 48 4 -6 113 -5 112 35 -4 c26 -3 34
-8 30 -19z m446 12 c11 -4 13 -19 10 -60 l-4 -55 38 0 c28 0 43 6 52 20 12 19
14 19 37 4 14 -9 25 -20 25 -25 0 -5 -34 -9 -75 -9 l-75 0 0 -55 c0 -50 2 -55
22 -55 12 0 31 9 43 20 l21 20 24 -25 23 -25 -66 0 -67 0 0 -70 0 -70 -30 0
-30 0 0 70 0 70 -57 2 -58 2 58 3 57 4 0 54 0 55 -38 0 c-33 0 -41 -4 -51 -27
-17 -38 -81 -123 -91 -123 -5 0 2 21 15 48 14 26 32 79 41 117 9 39 18 75 20
82 2 9 11 10 36 1 43 -14 44 -15 26 -35 -8 -10 -18 -26 -21 -35 -5 -15 0 -18
28 -18 l35 0 0 60 c0 62 9 71 52 55z m318 -20 c15 -9 12 -41 -5 -55 -19 -15
-45 3 -45 31 0 10 -4 21 -10 24 -5 3 -10 10 -10 15 0 8 49 -2 70 -15z m263 8
c18 -17 17 -18 -30 -28 -48 -10 -48 -10 -51 -53 -3 -40 -2 -42 24 -42 15 0 36
8 46 17 14 13 23 15 35 7 38 -24 25 -34 -41 -34 l-66 0 0 -43 c0 -24 5 -48 12
-55 9 -9 0 -12 -40 -12 l-52 0 0 -55 0 -55 61 0 60 0 -2 62 c-2 49 1 64 14 72
22 14 64 -24 51 -45 -5 -8 -9 -39 -9 -69 0 -53 -1 -55 -27 -58 -20 -2 -28 1
-28 12 0 13 -12 16 -59 16 -50 0 -59 -3 -64 -20 -3 -12 -14 -20 -25 -20 -19 0
-21 7 -24 96 -3 91 -2 95 17 89 70 -19 65 -22 65 34 l0 51 -57 2 -58 2 58 3
57 4 0 39 0 40 -47 1 -48 0 65 18 c36 10 76 23 90 29 36 15 51 14 73 -5z
m-882 -23 l24 -19 -49 -1 c-48 0 -49 0 -31 20 22 25 27 25 56 0z m-291 -22 c0
-4 -4 -8 -10 -8 -5 0 -9 -39 -9 -87 1 -113 -15 -173 -57 -220 l-34 -38 17 40
c12 29 18 80 21 191 l4 151 34 -10 c19 -6 34 -14 34 -19z m-325 2 c-3 -5 -10
-10 -16 -10 -5 0 -9 5 -9 10 0 6 7 10 16 10 8 0 12 -4 9 -10z m-791 -48 c3 -5
1 -26 -4 -48 -8 -34 -7 -41 12 -55 23 -18 17 -39 -12 -39 -32 0 -100 -31 -100
-46 0 -10 14 -14 50 -14 39 0 53 4 62 20 7 11 17 20 22 20 12 0 46 -31 46 -42
0 -4 -40 -8 -89 -8 l-90 0 -3 -42 c-3 -36 -7 -44 -30 -52 -23 -8 -31 -6 -51
16 l-24 26 28 6 c21 4 29 11 29 26 0 19 -6 20 -95 20 -52 0 -95 3 -95 8 0 4
43 6 95 4 l95 -3 0 29 c0 26 3 28 30 24 17 -2 37 2 47 9 14 12 1 15 -93 20
l-109 5 116 2 c64 1 119 5 122 9 4 3 -1 12 -11 19 -20 16 -158 19 -167 4 -3
-5 -15 -10 -26 -10 -16 0 -19 7 -19 56 0 54 1 56 23 49 12 -4 56 -10 97 -12
61 -4 79 -2 89 11 13 15 42 9 55 -12z m2016 -101 c-28 -90 -30 -105 -19 -141
13 -44 2 -70 -32 -70 -20 0 -22 5 -19 63 1 21 -4 45 -10 53 -9 10 -9 14 -1 14
6 0 32 43 58 95 26 52 49 93 51 91 2 -2 -11 -50 -28 -105z m-1230 89 c12 -8
11 -10 -7 -10 -13 0 -23 5 -23 10 0 13 11 13 30 0z m370 0 c-20 -13 -40 -13
-40 0 0 6 12 10 28 10 21 0 24 -2 12 -10z m821 0 c23 -13 25 -55 3 -64 -23 -9
-22 -9 -43 34 -19 40 -19 40 1 40 10 0 28 -5 39 -10z m-111 -245 l23 -25 -48
0 -48 0 23 25 c13 14 24 25 25 25 1 0 12 -11 25 -25z m-350 -25 c0 -5 -9 -10
-19 -10 -11 0 -23 5 -26 10 -4 6 5 10 19 10 14 0 26 -4 26 -10z"/>
<path d="M7350 2070 c-25 -4 -39 -8 -32 -8 6 -1 21 -11 32 -22 16 -16 18 -25
10 -40 -9 -17 -8 -20 9 -20 12 0 23 11 30 31 13 37 14 70 4 67 -5 0 -28 -4
-53 -8z"/>
<path d="M7237 2053 c37 -19 48 -40 32 -59 -9 -11 -5 -14 20 -14 26 0 31 3 27
18 -3 9 -8 29 -12 45 -6 25 -10 27 -53 26 l-46 0 32 -16z"/>
<path d="M7796 1939 c3 -6 2 -14 -5 -18 -6 -4 -14 -21 -17 -39 -6 -30 -5 -32
24 -32 29 0 30 1 30 50 0 43 -3 50 -20 50 -11 0 -16 -4 -12 -11z"/>
<path d="M8297 1870 c20 -34 31 -37 48 -13 11 15 9 19 -12 30 -45 23 -57 17
-36 -17z"/>
<path d="M6800 1985 c0 -24 2 -25 75 -25 73 0 75 1 75 25 0 24 -2 25 -75 25
-73 0 -75 -1 -75 -25z"/>
<path d="M11548 2828 c-4 -30 -39 -35 -63 -8 -24 26 -80 26 -124 -1 l-34 -21
-27 21 c-34 24 -40 19 -40 -31 0 -30 7 -46 29 -69 28 -27 34 -29 111 -29 54 0
91 5 111 16 34 17 59 66 59 114 0 35 -17 41 -22 8z m-98 -68 c-20 -13 -50 -13
-50 0 0 6 15 10 33 10 24 0 28 -3 17 -10z"/>
<path d="M4800 2671 c0 -5 -8 -11 -17 -14 -10 -2 12 -6 50 -8 37 -2 67 -3 67
-1 0 6 -69 32 -85 32 -8 0 -15 -4 -15 -9z"/>
<path d="M5259 2583 c-69 -77 -67 -69 -24 -113 l38 -39 39 56 40 56 -34 34
-34 33 -25 -27z"/>
<path d="M4792 2348 c-8 -8 -12 -57 -12 -143 0 -82 -4 -135 -11 -142 -6 -6 -8
-20 -4 -32 6 -19 14 -21 78 -21 40 0 156 -3 260 -7 170 -6 187 -5 187 10 0 10
-3 17 -7 17 -5 0 -105 5 -223 10 -181 9 -217 13 -227 27 -9 12 -13 59 -13 149
0 130 -5 155 -28 132z"/>
<path d="M12400 1951 c-14 -5 -39 -15 -57 -24 -19 -10 -62 -18 -107 -20 -90
-3 -120 -20 -155 -91 l-24 -48 23 -69 c20 -62 40 -90 40 -56 0 42 24 90 53
107 57 35 173 22 216 -24 19 -20 22 -33 19 -70 -2 -30 1 -46 8 -46 16 0 84 77
84 94 0 29 51 75 100 91 52 17 70 37 70 78 0 51 -70 76 -105 37 -24 -26 -39
-25 -54 4 -13 24 -51 47 -74 45 -7 0 -23 -4 -37 -8z"/>
<path d="M4242 1748 c-7 -7 -12 -22 -12 -34 0 -31 75 -94 112 -94 29 0 44 19
35 42 -4 8 -8 5 -12 -9 -10 -30 -36 -29 -74 3 -31 26 -40 57 -21 69 15 9 12
35 -3 35 -7 0 -18 -5 -25 -12z"/>
<path d="M4405 1567 c-5 -16 -95 -462 -95 -471 0 -12 738 0 800 13 94 19 190
43 190 47 0 2 -9 25 -19 52 -11 26 -38 115 -61 197 -23 83 -44 152 -46 154 -1
2 -17 -7 -33 -18 -50 -36 -152 -78 -219 -91 -87 -18 -240 -8 -321 20 -35 13
-92 42 -128 66 -40 27 -65 38 -68 31z"/>
<path d="M7386 979 c-3 -13 -28 -195 -55 -405 -28 -209 -53 -388 -57 -397 -3
-9 -28 -33 -55 -53 -27 -20 -49 -40 -49 -44 0 -29 94 -21 147 11 26 17 32 27
35 67 3 26 30 133 62 237 151 500 177 587 174 590 -2 2 -47 7 -100 11 -96 7
-97 7 -102 -17z"/>
<path d="M7764 963 c3 -21 17 -128 32 -238 14 -110 37 -265 51 -345 14 -80 29
-174 32 -210 8 -82 22 -106 63 -113 47 -7 54 5 28 58 -24 50 -24 30 -1 390 6
99 15 246 19 326 l7 146 -95 11 c-145 18 -143 19 -136 -25z"/>
<path d="M11809 502 c24 -44 147 -122 194 -122 9 0 17 -4 17 -8 0 -5 -53 -12
-117 -16 -65 -3 -122 -11 -127 -16 -6 -6 -20 -10 -32 -10 -30 0 -63 -43 -70
-92 -4 -21 -9 -38 -12 -38 -3 0 -20 14 -37 30 -26 25 -37 29 -62 24 -49 -10
-50 -32 -4 -78 32 -32 48 -40 80 -42 23 -1 47 -6 54 -12 25 -20 55 -23 71 -7
21 21 20 44 -1 67 -38 43 1 39 338 -32 184 -38 344 -72 355 -75 16 -3 45 13
108 61 l86 66 -40 51 c-21 28 -37 53 -36 55 2 1 21 -7 42 -19 53 -30 37 -16
-83 75 -55 42 -107 83 -113 91 -10 12 -51 15 -229 15 -224 0 -330 10 -369 36
-22 15 -23 14 -13 -4z"/>
<path d="M9700 292 c0 -17 5 -54 11 -82 10 -46 13 -50 39 -50 23 0 29 5 34 31
8 43 7 91 -2 107 -5 7 -25 15 -45 19 -36 5 -37 5 -37 -25z"/>
<path d="M11172 192 c-35 -41 -38 -50 -27 -65 22 -30 79 -13 116 34 39 49 33
79 -16 79 -27 0 -40 -8 -73 -48z"/>
<path d="M4480 181 c0 -22 9 -34 39 -54 l39 -26 21 23 21 22 -22 21 c-18 16
-77 43 -94 43 -2 0 -4 -13 -4 -29z"/>
<path d="M5907 172 l-27 -28 24 -23 24 -22 52 26 c41 21 51 30 48 48 -2 18
-10 22 -48 25 -39 2 -49 -1 -73 -26z"/>
<path d="M10020 171 c-5 -11 -10 -28 -10 -39 0 -17 12 -21 86 -30 94 -13 104
-11 104 18 0 13 -16 28 -50 45 -60 31 -115 33 -130 6z"/>
<path d="M4860 147 c0 -18 10 -28 40 -42 39 -17 41 -17 60 0 l20 18 -22 24
c-15 16 -33 23 -60 23 -33 0 -38 -3 -38 -23z"/>
<path d="M6220 115 c0 -19 10 -30 49 -49 l48 -25 23 24 23 25 -23 25 c-19 20
-33 25 -72 25 -44 0 -48 -2 -48 -25z"/>
</g>
</svg>
